<svg width="58" height="97" viewBox="0 0 58 97" fill="none" xmlns="http://www.w3.org/2000/svg">
<g id="Modo_de_isolamento" clip-path="url(#clip0_32_5699)">
<path id="Vector" d="M34.1366 20.32L30.608 28.9619C28.9748 32.9528 28.9446 37.1468 30.4971 40.8026H12.7533L34.1265 20.3302M47.9586 0L0 45.9308H45.3576L41.9197 44.6817C35.5783 42.3664 32.9067 36.8015 35.3061 30.9218L47.9586 0Z" fill="white"/>
<path id="Vector_2" d="M45.2364 56.2076L23.8632 76.68L27.3918 68.0381C29.025 64.0473 29.0553 59.8533 27.5027 56.1975H45.2364M57.9998 51.0692H12.6423L16.0801 52.3183C22.4215 54.6336 25.0932 60.1985 22.6937 66.0782L10.0513 96.9899L58.0099 51.0591L57.9998 51.0692Z" fill="#96D162"/>
</g>
<defs>
<clipPath id="clip0_32_5699">
<rect width="58" height="97" fill="white"/>
</clipPath>
</defs>
</svg>
