<svg width="62" height="126" viewBox="0 0 62 126" fill="none" xmlns="http://www.w3.org/2000/svg">
<g clip-path="url(#clip0_35_5836)">
<path d="M36.1366 20.32L32.608 28.9619C30.9748 32.9528 30.9446 37.1468 32.4971 40.8026H14.7533L36.1265 20.3302M49.9586 0L2 45.9308H47.3576L43.9197 44.6817C37.5783 42.3664 34.9067 36.8015 37.3061 30.9218L49.9586 0Z" fill="white"/>
<path d="M47.2364 56.2076L25.8632 76.68L29.3918 68.0381C31.025 64.0473 31.0553 59.8533 29.5027 56.1975H47.2364M59.9998 51.0692H14.6423L18.0801 52.3183C24.4215 54.6336 27.0932 60.1985 24.6937 66.0782L12.0513 96.9899L60.0099 51.0591L59.9998 51.0692Z" fill="#96D162"/>
</g>
<path d="M3.792 112.024L3.84 112.216C3.984 112.712 4.208 113.144 4.512 113.512C4.816 113.864 5.16 114.16 5.544 114.4C5.928 114.64 6.32 114.824 6.72 114.952C7.136 115.064 7.512 115.12 7.848 115.12C8.712 115.12 9.44 114.92 10.032 114.52C10.64 114.104 11.176 113.536 11.64 112.816L14.28 114.016C13.848 114.8 13.36 115.448 12.816 115.96C12.272 116.472 11.712 116.88 11.136 117.184C10.56 117.488 9.976 117.704 9.384 117.832C8.792 117.944 8.224 118 7.68 118C6.768 118 5.888 117.816 5.04 117.448C4.208 117.064 3.472 116.552 2.832 115.912C2.192 115.272 1.68 114.536 1.296 113.704C0.912 112.872 0.72 111.992 0.72 111.064C0.72 110.824 0.728 110.552 0.744 110.248C0.776 109.928 0.816 109.648 0.864 109.408C0.976 108.864 1.2 108.264 1.536 107.608C1.872 106.952 2.328 106.336 2.904 105.76C3.48 105.184 4.176 104.704 4.992 104.32C5.808 103.936 6.752 103.744 7.824 103.744C8.816 103.744 9.744 103.936 10.608 104.32C11.472 104.688 12.224 105.2 12.864 105.856C13.52 106.496 14.032 107.248 14.4 108.112C14.768 108.976 14.952 109.896 14.952 110.872C14.952 110.92 14.944 111 14.928 111.112C14.928 111.208 14.928 111.32 14.928 111.448C14.928 111.56 14.92 111.672 14.904 111.784C14.904 111.896 14.904 111.976 14.904 112.024H3.792ZM11.592 108.976C11.464 108.72 11.296 108.456 11.088 108.184C10.88 107.912 10.624 107.664 10.32 107.44C10.016 107.2 9.656 107.008 9.24 106.864C8.84 106.72 8.376 106.648 7.848 106.648C7.48 106.648 7.112 106.696 6.744 106.792C6.376 106.888 6.024 107.04 5.688 107.248C5.352 107.44 5.04 107.688 4.752 107.992C4.48 108.28 4.248 108.624 4.056 109.024L4.008 109.12H11.688L11.592 108.976ZM27.3197 108.928C26.8557 108.208 26.3197 107.656 25.7117 107.272C25.1197 106.872 24.3917 106.672 23.5277 106.672C23.1277 106.64 22.6797 106.704 22.1837 106.864C21.7037 107.024 21.2477 107.28 20.8157 107.632C20.3837 107.984 20.0237 108.432 19.7357 108.976C19.4477 109.52 19.3037 110.152 19.3037 110.872C19.3037 111.464 19.4077 112.016 19.6157 112.528C19.8397 113.04 20.1437 113.488 20.5277 113.872C20.9117 114.256 21.3597 114.56 21.8717 114.784C22.3837 115.008 22.9357 115.12 23.5277 115.12C24.3917 115.12 25.1197 114.92 25.7117 114.52C26.3037 114.12 26.8317 113.56 27.2957 112.84L29.9357 114.04C29.4397 114.92 28.8877 115.624 28.2797 116.152C27.6877 116.664 27.0957 117.064 26.5037 117.352C25.9117 117.624 25.3357 117.8 24.7757 117.88C24.2317 117.96 23.7597 118 23.3597 118C22.4317 118 21.5437 117.816 20.6957 117.448C19.8637 117.08 19.1277 116.584 18.4877 115.96C17.8477 115.336 17.3357 114.608 16.9517 113.776C16.5837 112.928 16.3997 112.024 16.3997 111.064C16.3997 110.056 16.5757 109.112 16.9277 108.232C17.2797 107.352 17.7757 106.584 18.4157 105.928C19.0557 105.256 19.8077 104.728 20.6717 104.344C21.5517 103.96 22.5037 103.768 23.5277 103.768C24.0877 103.768 24.6717 103.848 25.2797 104.008C25.8877 104.168 26.4797 104.408 27.0557 104.728C27.6317 105.048 28.1677 105.464 28.6637 105.976C29.1757 106.472 29.6077 107.064 29.9597 107.752L27.3197 108.928ZM34.4271 100.216V104.632L34.5951 104.536C35.1871 104.2 35.7311 103.952 36.2271 103.792C36.7391 103.616 37.3151 103.528 37.9551 103.528C38.7711 103.528 39.5231 103.664 40.2111 103.936C40.9151 104.192 41.5631 104.576 42.1551 105.088C42.9711 105.776 43.5551 106.56 43.9071 107.44C44.2591 108.304 44.4351 109.248 44.4351 110.272V118H41.5071V109.984C41.5071 109.472 41.4031 109.008 41.1951 108.592C41.0031 108.16 40.7391 107.792 40.4031 107.488C40.0831 107.168 39.7071 106.92 39.2751 106.744C38.8591 106.568 38.4271 106.48 37.9791 106.48C37.4671 106.48 36.9871 106.584 36.5391 106.792C36.1071 106.984 35.7311 107.256 35.4111 107.608C35.1071 107.944 34.8671 108.344 34.6911 108.808C34.5151 109.256 34.4271 109.744 34.4271 110.272V118H31.4751V100.216H34.4271ZM53.271 103.6C54.263 103.6 55.191 103.792 56.055 104.176C56.935 104.544 57.695 105.056 58.335 105.712C58.991 106.352 59.503 107.112 59.871 107.992C60.255 108.856 60.447 109.784 60.447 110.776C60.447 111.768 60.255 112.704 59.871 113.584C59.503 114.464 58.991 115.232 58.335 115.888C57.695 116.544 56.935 117.064 56.055 117.448C55.191 117.832 54.263 118.024 53.271 118.024C52.279 118.024 51.343 117.832 50.463 117.448C49.599 117.064 48.839 116.544 48.183 115.888C47.543 115.232 47.031 114.464 46.647 113.584C46.279 112.704 46.095 111.768 46.095 110.776C46.095 109.784 46.279 108.856 46.647 107.992C47.031 107.112 47.543 106.352 48.183 105.712C48.839 105.056 49.599 104.544 50.463 104.176C51.343 103.792 52.279 103.6 53.271 103.6ZM57.543 110.8C57.543 110.224 57.423 109.68 57.183 109.168C56.959 108.64 56.647 108.184 56.247 107.8C55.863 107.4 55.415 107.088 54.903 106.864C54.391 106.64 53.855 106.528 53.295 106.528C52.559 106.528 51.919 106.68 51.375 106.984C50.831 107.272 50.375 107.632 50.007 108.064C49.655 108.496 49.391 108.96 49.215 109.456C49.055 109.936 48.983 110.376 48.999 110.776C48.983 111.176 49.055 111.624 49.215 112.12C49.375 112.616 49.631 113.08 49.983 113.512C50.335 113.944 50.783 114.312 51.327 114.616C51.871 114.904 52.519 115.048 53.271 115.048C53.895 115.048 54.463 114.936 54.975 114.712C55.503 114.472 55.951 114.16 56.319 113.776C56.703 113.376 56.999 112.92 57.207 112.408C57.431 111.896 57.543 111.36 57.543 110.8Z" fill="white"/>
<defs>
<clipPath id="clip0_35_5836">
<rect width="58" height="97" fill="white" transform="translate(2)"/>
</clipPath>
</defs>
</svg>
